<svg width="342" height="56" viewBox="0 0 342 56" fill="none" xmlns="http://www.w3.org/2000/svg">
<path d="M334 0H8C3.58172 0 0 3.58172 0 8V48C0 52.4183 3.58172 56 8 56H334C338.418 56 342 52.4183 342 48V8C342 3.58172 338.418 0 334 0Z" fill="#FEE500"/>
<path d="M109.5 19.25C111.24 19.25 112.85 19.5905 114.329 20.2714C115.807 20.9524 116.977 21.8783 117.836 23.0492C118.695 24.2201 119.125 25.4974 119.125 26.8809C119.125 28.2643 118.695 29.5434 117.836 30.7179C116.977 31.8925 115.809 32.8202 114.334 33.5011C112.859 34.1821 111.247 34.5226 109.5 34.5226C108.949 34.5226 108.379 34.4829 107.792 34.4037C105.242 36.1835 103.885 37.0842 103.721 37.1058C103.642 37.1346 103.567 37.131 103.495 37.095C103.466 37.0734 103.445 37.0445 103.431 37.0085C103.416 36.9725 103.409 36.9401 103.409 36.9112V36.868C103.452 36.587 103.778 35.4161 104.387 33.3552C103.005 32.6635 101.907 31.7465 101.094 30.6044C100.281 29.4623 99.875 28.2211 99.875 26.8809C99.875 25.4974 100.305 24.2201 101.164 23.0492C102.023 21.8783 103.193 20.9524 104.671 20.2714C106.15 19.5905 107.76 19.25 109.5 19.25Z" fill="#181503"/>
<path d="M147.605 22.02H148.82C148.82 25.935 147.5 29.535 142.64 31.95L141.965 30.99C146.255 28.875 147.605 25.845 147.605 22.155V22.02ZM142.7 22.02H148.34V23.025H142.7V22.02ZM147.41 25.38V26.34L142.22 26.85L142.025 25.74L147.41 25.38ZM151.01 20.595H152.27V34.17H151.01V20.595ZM151.925 26.1H154.43V27.135H151.925V26.1ZM161.404 22.02H162.619C162.619 25.935 161.299 29.535 156.439 31.95L155.764 30.99C160.054 28.875 161.404 25.845 161.404 22.155V22.02ZM156.499 22.02H162.139V23.025H156.499V22.02ZM161.209 25.38V26.34L156.019 26.85L155.824 25.74L161.209 25.38ZM164.809 20.595H166.069V34.17H164.809V20.595ZM165.724 26.1H168.229V27.135H165.724V26.1ZM174.932 28.275H176.177V31.65H174.932V28.275ZM175.562 21.495C178.427 21.495 180.482 22.89 180.482 25.05C180.482 27.21 178.427 28.605 175.562 28.605C172.697 28.605 170.627 27.21 170.627 25.05C170.627 22.89 172.697 21.495 175.562 21.495ZM175.562 22.485C173.402 22.485 171.827 23.505 171.827 25.05C171.827 26.595 173.402 27.615 175.562 27.615C177.707 27.615 179.282 26.595 179.282 25.05C179.282 23.505 177.707 22.485 175.562 22.485ZM169.442 31.41H181.727V32.445H169.442V31.41ZM183.241 31.47H195.526V32.505H183.241V31.47ZM188.731 28.56H189.976V31.905H188.731V28.56ZM184.726 21.615H194.011V25.725H186.001V28.44H184.771V24.72H192.781V22.62H184.726V21.615ZM184.771 27.915H194.326V28.935H184.771V27.915ZM201.259 31.47H213.544V32.505H201.259V31.47ZM206.749 28.56H207.994V31.905H206.749V28.56ZM202.744 21.615H212.029V25.725H204.019V28.44H202.789V24.72H210.799V22.62H202.744V21.615ZM202.789 27.915H212.344V28.935H202.789V27.915ZM216.378 22.05H225.108V23.055H216.378V22.05ZM215.058 31.155H227.313V32.19H215.058V31.155ZM224.448 22.05H225.663V23.4C225.663 25.14 225.663 27.075 225.153 30L223.908 29.88C224.448 27.105 224.448 25.08 224.448 23.4V22.05ZM238.711 20.625H239.971V30.525H238.711V20.625ZM231.256 32.85H240.376V33.87H231.256V32.85ZM231.256 29.505H232.486V33.195H231.256V29.505ZM232.696 21.555C234.721 21.555 236.221 22.935 236.221 24.9C236.221 26.85 234.721 28.245 232.696 28.245C230.671 28.245 229.156 26.85 229.156 24.9C229.156 22.935 230.671 21.555 232.696 21.555ZM232.696 22.635C231.376 22.635 230.371 23.565 230.371 24.9C230.371 26.22 231.376 27.15 232.696 27.15C234.016 27.15 235.021 26.22 235.021 24.9C235.021 23.565 234.016 22.635 232.696 22.635Z" fill="#181503"/>
</svg>
