<svg width="342" height="56" viewBox="0 0 342 56" fill="none" xmlns="http://www.w3.org/2000/svg">
<path d="M334 0H8C3.58172 0 0 3.58172 0 8V48C0 52.4183 3.58172 56 8 56H334C338.418 56 342 52.4183 342 48V8C342 3.58172 338.418 0 334 0Z" fill="black"/>
<path d="M143.207 33H141.822L145.828 22.0909H147.192L151.197 33H149.813L146.553 23.8168H146.467L143.207 33ZM143.719 28.7386H149.301V29.9105H143.719V28.7386ZM152.726 36.0682V24.8182H153.941V26.1179H154.09C154.182 25.9759 154.31 25.7947 154.473 25.5746C154.64 25.3509 154.878 25.152 155.187 24.978C155.5 24.8004 155.922 24.7116 156.455 24.7116C157.144 24.7116 157.751 24.8839 158.277 25.2283C158.802 25.5728 159.212 26.0611 159.507 26.6932C159.802 27.3253 159.949 28.071 159.949 28.9304C159.949 29.7969 159.802 30.5479 159.507 31.1836C159.212 31.8157 158.804 32.3058 158.282 32.6538C157.76 32.9982 157.158 33.1705 156.476 33.1705C155.951 33.1705 155.53 33.0835 155.214 32.9094C154.898 32.7319 154.655 32.5312 154.484 32.3075C154.314 32.0803 154.182 31.892 154.09 31.7429H153.983V36.0682H152.726ZM153.962 28.9091C153.962 29.527 154.053 30.0721 154.234 30.5444C154.415 31.0131 154.679 31.3807 155.027 31.647C155.375 31.9098 155.802 32.0412 156.306 32.0412C156.831 32.0412 157.27 31.9027 157.621 31.6257C157.977 31.3452 158.243 30.9687 158.42 30.4964C158.602 30.0206 158.692 29.4915 158.692 28.9091C158.692 28.3338 158.603 27.8153 158.426 27.3537C158.252 26.8885 157.987 26.521 157.632 26.2511C157.281 25.9776 156.838 25.8409 156.306 25.8409C155.794 25.8409 155.365 25.9705 155.017 26.2298C154.669 26.4854 154.406 26.8441 154.228 27.3058C154.051 27.7638 153.962 28.2983 153.962 28.9091ZM161.867 36.0682V24.8182H163.081V26.1179H163.231C163.323 25.9759 163.451 25.7947 163.614 25.5746C163.781 25.3509 164.019 25.152 164.328 24.978C164.64 24.8004 165.063 24.7116 165.596 24.7116C166.284 24.7116 166.892 24.8839 167.417 25.2283C167.943 25.5728 168.353 26.0611 168.648 26.6932C168.943 27.3253 169.09 28.071 169.09 28.9304C169.09 29.7969 168.943 30.5479 168.648 31.1836C168.353 31.8157 167.945 32.3058 167.423 32.6538C166.901 32.9982 166.299 33.1705 165.617 33.1705C165.091 33.1705 164.67 33.0835 164.354 32.9094C164.038 32.7319 163.795 32.5312 163.625 32.3075C163.454 32.0803 163.323 31.892 163.231 31.7429H163.124V36.0682H161.867ZM163.103 28.9091C163.103 29.527 163.193 30.0721 163.374 30.5444C163.555 31.0131 163.82 31.3807 164.168 31.647C164.516 31.9098 164.942 32.0412 165.446 32.0412C165.972 32.0412 166.411 31.9027 166.762 31.6257C167.117 31.3452 167.384 30.9687 167.561 30.4964C167.742 30.0206 167.833 29.4915 167.833 28.9091C167.833 28.3338 167.744 27.8153 167.566 27.3537C167.392 26.8885 167.128 26.521 166.773 26.2511C166.421 25.9776 165.979 25.8409 165.446 25.8409C164.935 25.8409 164.505 25.9705 164.157 26.2298C163.809 26.4854 163.547 26.8441 163.369 27.3058C163.191 27.7638 163.103 28.2983 163.103 28.9091ZM172.265 22.0909V33H171.008V22.0909H172.265ZM177.997 33.1705C177.209 33.1705 176.529 32.9964 175.957 32.6484C175.389 32.2969 174.951 31.8068 174.642 31.1783C174.336 30.5462 174.184 29.8111 174.184 28.973C174.184 28.1349 174.336 27.3963 174.642 26.7571C174.951 26.1143 175.38 25.6136 175.931 25.255C176.485 24.8928 177.131 24.7116 177.87 24.7116C178.296 24.7116 178.717 24.7827 179.132 24.9247C179.548 25.0668 179.926 25.2976 180.267 25.6172C180.608 25.9332 180.879 26.3523 181.082 26.8743C181.284 27.3963 181.385 28.0391 181.385 28.8026V29.3352H175.078V28.2486H180.107C180.107 27.7869 180.015 27.375 179.83 27.0128C179.649 26.6506 179.39 26.3647 179.052 26.1552C178.718 25.9457 178.324 25.8409 177.87 25.8409C177.369 25.8409 176.936 25.9652 176.57 26.2138C176.208 26.4588 175.929 26.7784 175.734 27.1726C175.538 27.5668 175.441 27.9893 175.441 28.4403V29.1648C175.441 29.7827 175.547 30.3065 175.76 30.7362C175.977 31.1623 176.277 31.4872 176.66 31.7109C177.044 31.9311 177.49 32.0412 177.997 32.0412C178.328 32.0412 178.626 31.995 178.892 31.9027C179.162 31.8068 179.395 31.6648 179.59 31.4766C179.785 31.2848 179.936 31.0469 180.043 30.7628L181.257 31.1037C181.13 31.5156 180.915 31.8778 180.613 32.1903C180.311 32.4993 179.938 32.7408 179.494 32.9148C179.05 33.0852 178.551 33.1705 177.997 33.1705ZM182.897 31.47H195.182V32.505H182.897V31.47ZM188.387 28.56H189.632V31.905H188.387V28.56ZM184.382 21.615H193.667V25.725H185.657V28.44H184.427V24.72H192.437V22.62H184.382V21.615ZM184.427 27.915H193.982V28.935H184.427V27.915ZM200.915 31.47H213.2V32.505H200.915V31.47ZM206.405 28.56H207.65V31.905H206.405V28.56ZM202.4 21.615H211.685V25.725H203.675V28.44H202.445V24.72H210.455V22.62H202.4V21.615ZM202.445 27.915H212V28.935H202.445V27.915ZM216.033 22.05H224.763V23.055H216.033V22.05ZM214.713 31.155H226.968V32.19H214.713V31.155ZM224.103 22.05H225.318V23.4C225.318 25.14 225.318 27.075 224.808 30L223.563 29.88C224.103 27.105 224.103 25.08 224.103 23.4V22.05ZM238.367 20.625H239.627V30.525H238.367V20.625ZM230.912 32.85H240.032V33.87H230.912V32.85ZM230.912 29.505H232.142V33.195H230.912V29.505ZM232.352 21.555C234.377 21.555 235.877 22.935 235.877 24.9C235.877 26.85 234.377 28.245 232.352 28.245C230.327 28.245 228.812 26.85 228.812 24.9C228.812 22.935 230.327 21.555 232.352 21.555ZM232.352 22.635C231.032 22.635 230.027 23.565 230.027 24.9C230.027 26.22 231.032 27.15 232.352 27.15C233.672 27.15 234.677 26.22 234.677 24.9C234.677 23.565 233.672 22.635 232.352 22.635Z" fill="white"/>
<path d="M109.05 19.1396C110.13 19.1396 111.49 18.4096 112.3 17.4296C113.03 16.5396 113.57 15.3096 113.57 14.0696C113.57 13.8996 113.56 13.7296 113.52 13.5996C112.32 13.6496 110.87 14.4096 110 15.4296C109.31 16.2096 108.69 17.4296 108.69 18.6796C108.69 18.8596 108.72 19.0496 108.74 19.1096C108.82 19.1296 108.94 19.1396 109.06 19.1396H109.05ZM105.24 37.5996C106.72 37.5996 107.38 36.6096 109.22 36.6096C111.06 36.6096 111.51 37.5696 113.16 37.5696C114.81 37.5696 115.86 36.0796 116.88 34.6096C118.02 32.9296 118.5 31.2797 118.53 31.2097C118.42 31.1797 115.32 29.9096 115.32 26.3596C115.32 23.2796 117.76 21.8897 117.9 21.7797C116.28 19.4597 113.83 19.3997 113.15 19.3997C111.33 19.3997 109.85 20.4996 108.92 20.4996C107.91 20.4996 106.59 19.4597 105.01 19.4597C102.02 19.4597 98.98 21.9296 98.98 26.5996C98.98 29.4996 100.11 32.5696 101.5 34.5496C102.69 36.2296 103.73 37.5996 105.22 37.5996H105.24Z" fill="white"/>
</svg>
